<svg width="28" height="29" viewBox="0 0 28 29" fill="none" xmlns="http://www.w3.org/2000/svg">
<path d="M1.86621 2H4.02624C5.36695 2 6.42213 3.209 6.31041 4.6L5.28005 17.548C5.10625 19.667 6.70764 21.487 8.74353 21.487H21.9644C23.752 21.487 25.3162 19.953 25.4527 18.094L26.1231 8.34401C26.272 6.18601 24.7079 4.43099 22.6347 4.43099H6.60835" stroke="#2E3440" stroke-width="2.2" stroke-miterlimit="10" stroke-linecap="round" stroke-linejoin="round"/>
<path d="M19.5561 28C20.4131 28 21.1079 27.2725 21.1079 26.375C21.1079 25.4775 20.4131 24.75 19.5561 24.75C18.6991 24.75 18.0044 25.4775 18.0044 26.375C18.0044 27.2725 18.6991 28 19.5561 28Z" stroke="#2E3440" stroke-width="1.5" stroke-miterlimit="10" stroke-linecap="round" stroke-linejoin="round"/>
<path d="M9.62499 28C10.482 28 11.1767 27.2725 11.1767 26.375C11.1767 25.4775 10.482 24.75 9.62499 24.75C8.76798 24.75 8.07324 25.4775 8.07324 26.375C8.07324 27.2725 8.76798 28 9.62499 28Z" stroke="#2E3440" stroke-width="1.5" stroke-miterlimit="10" stroke-linecap="round" stroke-linejoin="round"/>
<path d="M10.5562 9.7998H25.4529" stroke="#2E3440" stroke-width="2.2" stroke-miterlimit="10" stroke-linecap="round" stroke-linejoin="round"/>
</svg>
