<svg width="37" height="24" viewBox="0 0 37 24" fill="none" xmlns="http://www.w3.org/2000/svg">
<path d="M34.2561 0H3.11158C1.59639 0 0.368164 1.22822 0.368164 2.74342V21.2565C0.368164 22.7716 1.59639 23.9999 3.11158 23.9999H34.2561C35.7713 23.9999 36.9996 22.7717 36.9996 21.2565V2.74342C36.9996 1.22822 35.7713 0 34.2561 0Z" fill="#F5F5F5"/>
<path d="M0.519043 1.84617H36.8486C36.4768 0.771763 35.4569 0 34.2561 0H3.11157C1.91075 0 0.890866 0.771763 0.519043 1.84617Z" fill="#FF4B55"/>
<path d="M36.9996 7.38477H0.368164V9.23086H36.9996V7.38477Z" fill="#FF4B55"/>
<path d="M36.9996 3.69238H0.368164V5.53848H36.9996V3.69238Z" fill="#FF4B55"/>
<path d="M0.368164 12.2917C0.368164 12.6405 0.650984 12.9233 0.999769 12.9233H36.9996V11.0771H0.368164V12.2917Z" fill="#FF4B55"/>
<path d="M36.9996 18.4619H0.368164V20.3081H36.9996V18.4619Z" fill="#FF4B55"/>
<path d="M36.8487 22.1533H0.519043C0.890866 23.2277 1.91082 23.9995 3.11157 23.9995H34.2561C35.4569 23.9995 36.4768 23.2277 36.8487 22.1533Z" fill="#FF4B55"/>
<path d="M36.9996 14.7695H0.368164V16.6156H36.9996V14.7695Z" fill="#FF4B55"/>
<path d="M0.999769 12.9231H16.7892C17.138 12.9231 17.4208 12.6403 17.4208 12.2915V0.631605C17.4208 0.282748 17.138 0 16.7892 0H3.11158C1.59639 7.15457e-05 0.368164 1.2283 0.368164 2.74349V12.2915C0.368164 12.6403 0.650984 12.9231 0.999769 12.9231Z" fill="#41479B"/>
<path d="M2.14153 1.44892L2.28133 1.86818L2.72326 1.87154C2.7805 1.87204 2.80418 1.94502 2.75818 1.979L2.40267 2.2415L2.53603 2.66284C2.55334 2.71735 2.49117 2.76257 2.44459 2.72923L2.08508 2.47231L1.72556 2.7293C1.67898 2.76264 1.61695 2.71743 1.63412 2.66291L1.76749 2.24158L1.41197 1.97907C1.36597 1.94502 1.38965 1.87204 1.44689 1.87161L1.88883 1.86825L2.02863 1.44899C2.04666 1.39462 2.12335 1.39462 2.14153 1.44892Z" fill="#F5F5F5"/>
<path d="M2.14153 3.64223L2.28133 4.06148L2.72326 4.06485C2.7805 4.06535 2.80418 4.13825 2.75818 4.17231L2.40267 4.43488L2.53603 4.85621C2.55334 4.91073 2.49117 4.95595 2.44459 4.92261L2.08508 4.66569L1.72556 4.92268C1.67898 4.95595 1.61695 4.9108 1.63412 4.85629L1.76749 4.43495L1.41197 4.17238C1.36597 4.13833 1.38965 4.06542 1.44689 4.06492L1.88883 4.06156L2.02863 3.6423C2.04666 3.588 2.12335 3.588 2.14153 3.64223Z" fill="#F5F5F5"/>
<path d="M2.14153 5.83564L2.28133 6.2549L2.72326 6.25826C2.7805 6.25876 2.80418 6.33167 2.75818 6.36572L2.40267 6.6283L2.53603 7.04963C2.55334 7.10415 2.49117 7.14936 2.44459 7.11602L2.08508 6.8591L1.72556 7.11609C1.67898 7.14936 1.61695 7.10429 1.63412 7.0497L1.76749 6.62837L1.41197 6.36579C1.36597 6.33174 1.38965 6.25883 1.44689 6.25833L1.88883 6.25497L2.02863 5.83571C2.04666 5.78134 2.12335 5.78134 2.14153 5.83564Z" fill="#F5F5F5"/>
<path d="M2.14153 8.02802L2.28133 8.44728L2.72326 8.45064C2.7805 8.45114 2.80418 8.52412 2.75818 8.5581L2.40267 8.82068L2.53603 9.24201C2.55334 9.29653 2.49117 9.34174 2.44459 9.3084L2.08508 9.05148L1.72556 9.30848C1.67898 9.34175 1.61695 9.2966 1.63412 9.24208L1.76749 8.82075L1.41197 8.55818C1.36597 8.52426 1.38965 8.45122 1.44689 8.45072L1.88883 8.44735L2.02863 8.02809C2.04666 7.97372 2.12335 7.97372 2.14153 8.02802Z" fill="#F5F5F5"/>
<path d="M2.14153 10.2213L2.28133 10.6406L2.72326 10.6439C2.7805 10.6445 2.80418 10.7174 2.75818 10.7514L2.40267 11.014L2.53603 11.4353C2.55334 11.4898 2.49117 11.5351 2.44459 11.5017L2.08508 11.2448L1.72556 11.5018C1.67898 11.5351 1.61695 11.4899 1.63412 11.4354L1.76749 11.0141L1.41197 10.7515C1.36597 10.7174 1.38965 10.6445 1.44689 10.644L1.88883 10.6407L2.02863 10.2214C2.04666 10.1671 2.12335 10.1671 2.14153 10.2213Z" fill="#F5F5F5"/>
<path d="M3.84367 2.52407L3.98348 2.94333L4.42541 2.94669C4.48265 2.94719 4.50633 3.02017 4.46033 3.05415L4.10482 3.31673L4.23818 3.73806C4.25549 3.79258 4.19332 3.83779 4.14674 3.80445L3.78723 3.54746L3.42771 3.80445C3.38113 3.83772 3.3191 3.79258 3.33627 3.73806L3.46963 3.31673L3.11412 3.05415C3.06812 3.0201 3.0918 2.94719 3.14904 2.94669L3.59098 2.94333L3.73078 2.52407C3.74881 2.46984 3.82557 2.46984 3.84367 2.52407Z" fill="#F5F5F5"/>
<path d="M3.84367 4.71749L3.98348 5.13674L4.42541 5.14011C4.48265 5.14061 4.50633 5.21358 4.46033 5.24757L4.10482 5.51014L4.23818 5.93147C4.25549 5.98599 4.19332 6.03121 4.14674 5.99787L3.78723 5.74087L3.42771 5.99787C3.38113 6.03114 3.3191 5.98606 3.33627 5.93147L3.46963 5.51014L3.11412 5.24757C3.06812 5.21366 3.0918 5.14061 3.14904 5.14011L3.59098 5.13674L3.73078 4.71749C3.74881 4.66318 3.82557 4.66318 3.84367 4.71749Z" fill="#F5F5F5"/>
<path d="M3.84367 6.91084L3.98348 7.3301L4.42541 7.33346C4.48265 7.33397 4.50633 7.40687 4.46033 7.44093L4.10482 7.7035L4.23818 8.12483C4.25549 8.17935 4.19332 8.22457 4.14674 8.19123L3.78723 7.93423L3.42771 8.19123C3.38113 8.22449 3.3191 8.17935 3.33627 8.12483L3.46963 7.7035L3.11412 7.44093C3.06812 7.40687 3.0918 7.33397 3.14904 7.33346L3.59098 7.3301L3.73078 6.91084C3.74881 6.85654 3.82557 6.85654 3.84367 6.91084Z" fill="#F5F5F5"/>
<path d="M3.84367 9.10415L3.98348 9.52341L4.42541 9.52677C4.48265 9.52727 4.50633 9.60018 4.46033 9.63423L4.10482 9.8968L4.23818 10.3181C4.25549 10.3727 4.19332 10.4179 4.14674 10.3845L3.78723 10.1275L3.42771 10.3845C3.38113 10.4179 3.3191 10.3727 3.33627 10.3181L3.46963 9.8968L3.11412 9.63423C3.06812 9.60018 3.0918 9.52727 3.14904 9.52677L3.59098 9.52341L3.73078 9.10415C3.74881 9.04992 3.82557 9.04992 3.84367 9.10415Z" fill="#F5F5F5"/>
<path d="M5.54631 1.44893L5.68611 1.86819L6.12805 1.87155C6.18529 1.87205 6.20897 1.94503 6.16296 1.97901L5.80745 2.24151L5.94081 2.66285C5.95813 2.71736 5.89596 2.76258 5.84938 2.72924L5.48986 2.47225L5.13034 2.72924C5.08377 2.76258 5.02174 2.71736 5.03891 2.66285L5.17227 2.24151L4.81676 1.97901C4.77076 1.94496 4.79444 1.87198 4.85167 1.87155L5.29361 1.86819L5.43341 1.44893C5.45144 1.39463 5.52821 1.39463 5.54631 1.44893Z" fill="#F5F5F5"/>
<path d="M5.54582 3.64224L5.68562 4.06149L6.12756 4.06486C6.1848 4.06536 6.20848 4.13826 6.16248 4.17232L5.80697 4.43489L5.94033 4.85622C5.95764 4.91074 5.89547 4.95596 5.84889 4.92262L5.48937 4.66563L5.12986 4.92262C5.08328 4.95589 5.02125 4.91074 5.03842 4.85622L5.17178 4.43489L4.81627 4.17232C4.77027 4.13826 4.79395 4.06536 4.85119 4.06486L5.29312 4.06149L5.43292 3.64224C5.45095 3.588 5.52772 3.588 5.54582 3.64224Z" fill="#F5F5F5"/>
<path d="M5.54582 5.83565L5.68562 6.25491L6.12756 6.25827C6.1848 6.25877 6.20848 6.33168 6.16248 6.36573L5.80697 6.6283L5.94033 7.04964C5.95764 7.10415 5.89547 7.14937 5.84889 7.11603L5.48937 6.85904L5.12986 7.11603C5.08328 7.1493 5.02125 7.10423 5.03842 7.04964L5.17178 6.6283L4.81627 6.36573C4.77027 6.33168 4.79395 6.25877 4.85119 6.25827L5.29312 6.25491L5.43292 5.83565C5.45095 5.78135 5.52772 5.78135 5.54582 5.83565Z" fill="#F5F5F5"/>
<path d="M5.54582 8.02803L5.68562 8.44729L6.12756 8.45065C6.1848 8.45115 6.20848 8.52413 6.16248 8.55811L5.80697 8.82069L5.94033 9.24202C5.95764 9.29654 5.89547 9.34175 5.84889 9.30841L5.48937 9.05142L5.12986 9.30841C5.08328 9.34168 5.02125 9.29654 5.03842 9.24202L5.17178 8.82069L4.81627 8.55811C4.77027 8.5242 4.79395 8.45115 4.85119 8.45065L5.29312 8.44729L5.43292 8.02803C5.45095 7.97373 5.52772 7.97373 5.54582 8.02803Z" fill="#F5F5F5"/>
<path d="M5.54582 10.2213L5.68562 10.6406L6.12756 10.644C6.1848 10.6445 6.20848 10.7174 6.16248 10.7514L5.80697 11.014L5.94033 11.4353C5.95764 11.4898 5.89547 11.5351 5.84889 11.5017L5.48937 11.2447L5.12986 11.5017C5.08328 11.535 5.02125 11.4898 5.03842 11.4353L5.17178 11.014L4.81627 10.7514C4.77027 10.7174 4.79395 10.6445 4.85119 10.644L5.29312 10.6406L5.43292 10.2213C5.45095 10.1671 5.52772 10.1671 5.54582 10.2213Z" fill="#F5F5F5"/>
<path d="M7.24846 2.52407L7.38826 2.94333L7.8302 2.94669C7.88743 2.94719 7.91112 3.02017 7.86511 3.05415L7.5096 3.31673L7.64296 3.73806C7.66028 3.79258 7.5981 3.83779 7.55153 3.80445L7.19201 3.54746L6.83249 3.80445C6.78592 3.83772 6.72389 3.79258 6.74106 3.73806L6.87442 3.31673L6.51891 3.05415C6.4729 3.0201 6.49659 2.94719 6.55382 2.94669L6.99576 2.94333L7.13556 2.52407C7.15352 2.46984 7.23036 2.46984 7.24846 2.52407Z" fill="#F5F5F5"/>
<path d="M7.24846 4.71749L7.38826 5.13674L7.8302 5.14011C7.88743 5.14061 7.91112 5.21358 7.86511 5.24757L7.5096 5.51014L7.64296 5.93147C7.66028 5.98599 7.5981 6.03121 7.55153 5.99787L7.19201 5.74087L6.83249 5.99787C6.78592 6.03114 6.72389 5.98606 6.74106 5.93147L6.87442 5.51014L6.51891 5.24757C6.4729 5.21366 6.49659 5.14061 6.55382 5.14011L6.99576 5.13674L7.13556 4.71749C7.15352 4.66318 7.23036 4.66318 7.24846 4.71749Z" fill="#F5F5F5"/>
<path d="M7.24846 6.91084L7.38826 7.3301L7.8302 7.33346C7.88743 7.33397 7.91112 7.40687 7.86511 7.44093L7.5096 7.7035L7.64296 8.12483C7.66028 8.17935 7.5981 8.22457 7.55153 8.19123L7.19201 7.93423L6.83249 8.19123C6.78592 8.22449 6.72389 8.17935 6.74106 8.12483L6.87442 7.7035L6.51891 7.44093C6.4729 7.40687 6.49659 7.33397 6.55382 7.33346L6.99576 7.3301L7.13556 6.91084C7.15352 6.85654 7.23036 6.85654 7.24846 6.91084Z" fill="#F5F5F5"/>
<path d="M7.24846 9.10415L7.38826 9.52341L7.8302 9.52677C7.88743 9.52727 7.91112 9.60018 7.86511 9.63423L7.5096 9.8968L7.64296 10.3181C7.66028 10.3727 7.5981 10.4179 7.55153 10.3845L7.19201 10.1275L6.83249 10.3845C6.78592 10.4179 6.72389 10.3727 6.74106 10.3181L6.87442 9.8968L6.51891 9.63423C6.4729 9.60018 6.49659 9.52727 6.55382 9.52677L6.99576 9.52341L7.13556 9.10415C7.15352 9.04992 7.23036 9.04992 7.24846 9.10415Z" fill="#F5F5F5"/>
<path d="M8.95068 1.44892L9.09048 1.86818L9.53242 1.87154C9.58965 1.87204 9.61334 1.94502 9.56733 1.979L9.21182 2.2415L9.34518 2.66284C9.3625 2.71735 9.30032 2.76257 9.25375 2.72923L8.89416 2.47231L8.53464 2.7293C8.48807 2.76264 8.42604 2.71743 8.44321 2.66291L8.57657 2.24158L8.22106 1.97907C8.17505 1.94502 8.19873 1.87204 8.25597 1.87161L8.69791 1.86825L8.83771 1.44899C8.85581 1.39462 8.93258 1.39462 8.95068 1.44892Z" fill="#F5F5F5"/>
<path d="M8.95068 3.64224L9.09048 4.06149L9.53242 4.06486C9.58965 4.06536 9.61334 4.13826 9.56733 4.17232L9.21182 4.43489L9.34518 4.85622C9.3625 4.91074 9.30032 4.95596 9.25375 4.92262L8.89416 4.66563L8.53464 4.92262C8.48807 4.95589 8.42604 4.91074 8.44321 4.85622L8.57657 4.43489L8.22106 4.17232C8.17505 4.13826 8.19873 4.06536 8.25597 4.06486L8.69791 4.06149L8.83771 3.64224C8.85581 3.588 8.93258 3.588 8.95068 3.64224Z" fill="#F5F5F5"/>
<path d="M8.95068 5.83566L9.09048 6.25492L9.53242 6.25828C9.58965 6.25878 9.61334 6.33169 9.56733 6.36574L9.21182 6.62831L9.34518 7.04965C9.3625 7.10416 9.30032 7.14938 9.25375 7.11604L8.89416 6.85898L8.53464 7.11597C8.48807 7.14924 8.42604 7.10409 8.44321 7.04957L8.57657 6.62824L8.22106 6.36567C8.17505 6.33161 8.19873 6.25871 8.25597 6.25821L8.69791 6.25484L8.83771 5.83559C8.85581 5.78136 8.93258 5.78135 8.95068 5.83566Z" fill="#F5F5F5"/>
<path d="M8.95068 8.02803L9.09048 8.44729L9.53242 8.45065C9.58965 8.45115 9.61334 8.52413 9.56733 8.55811L9.21182 8.82069L9.34518 9.24202C9.3625 9.29654 9.30032 9.34175 9.25375 9.30841L8.89416 9.05142L8.53464 9.30841C8.48807 9.34168 8.42604 9.29654 8.44321 9.24202L8.57657 8.82069L8.22106 8.55811C8.17505 8.5242 8.19873 8.45115 8.25597 8.45065L8.69791 8.44729L8.83771 8.02803C8.85581 7.97373 8.93258 7.97373 8.95068 8.02803Z" fill="#F5F5F5"/>
<path d="M8.95068 10.2213L9.09048 10.6406L9.53242 10.644C9.58965 10.6445 9.61334 10.7174 9.56733 10.7514L9.21182 11.014L9.34518 11.4353C9.3625 11.4898 9.30032 11.5351 9.25375 11.5017L8.89416 11.2447L8.53464 11.5017C8.48807 11.535 8.42604 11.4898 8.44321 11.4353L8.57657 11.014L8.22106 10.7514C8.17505 10.7174 8.19873 10.6445 8.25597 10.644L8.69791 10.6406L8.83771 10.2213C8.85581 10.1671 8.93258 10.1671 8.95068 10.2213Z" fill="#F5F5F5"/>
<path d="M10.6532 2.52407L10.793 2.94333L11.235 2.94669C11.2922 2.94719 11.3159 3.02017 11.2699 3.05415L10.9144 3.31673L11.0477 3.73806C11.0651 3.79258 11.0029 3.83779 10.9563 3.80445L10.5968 3.54746L10.2373 3.80445C10.1907 3.83772 10.1287 3.79258 10.1458 3.73806L10.2792 3.31673L9.92369 3.05415C9.87769 3.0201 9.90137 2.94719 9.95861 2.94669L10.4005 2.94333L10.5403 2.52407C10.5584 2.46984 10.6351 2.46984 10.6532 2.52407Z" fill="#F5F5F5"/>
<path d="M10.6532 4.71749L10.793 5.13674L11.235 5.14011C11.2922 5.14061 11.3159 5.21358 11.2699 5.24757L10.9144 5.51014L11.0477 5.93147C11.0651 5.98599 11.0029 6.03121 10.9563 5.99787L10.5968 5.74087L10.2373 5.99787C10.1907 6.03114 10.1287 5.98606 10.1458 5.93147L10.2792 5.51014L9.92369 5.24757C9.87769 5.21366 9.90137 5.14061 9.95861 5.14011L10.4005 5.13674L10.5403 4.71749C10.5584 4.66318 10.6351 4.66318 10.6532 4.71749Z" fill="#F5F5F5"/>
<path d="M10.6532 6.91084L10.793 7.3301L11.235 7.33346C11.2922 7.33397 11.3159 7.40687 11.2699 7.44093L10.9144 7.7035L11.0477 8.12483C11.0651 8.17935 11.0029 8.22457 10.9563 8.19123L10.5968 7.93423L10.2373 8.19123C10.1907 8.22449 10.1287 8.17935 10.1458 8.12483L10.2792 7.7035L9.92369 7.44093C9.87769 7.40687 9.90137 7.33397 9.95861 7.33346L10.4005 7.3301L10.5403 6.91084C10.5584 6.85654 10.6351 6.85654 10.6532 6.91084Z" fill="#F5F5F5"/>
<path d="M10.6532 9.10415L10.793 9.52341L11.235 9.52677C11.2922 9.52727 11.3159 9.60018 11.2699 9.63423L10.9144 9.8968L11.0477 10.3181C11.0651 10.3727 11.0029 10.4179 10.9563 10.3845L10.5968 10.1275L10.2373 10.3845C10.1907 10.4179 10.1287 10.3727 10.1458 10.3181L10.2792 9.8968L9.92369 9.63423C9.87769 9.60018 9.90137 9.52727 9.95861 9.52677L10.4005 9.52341L10.5403 9.10415C10.5584 9.04992 10.6351 9.04992 10.6532 9.10415Z" fill="#F5F5F5"/>
<path d="M12.3554 1.44893L12.4952 1.86819L12.9371 1.87155C12.9944 1.87205 13.018 1.94503 12.972 1.97901L12.6165 2.24151L12.7499 2.66285C12.7672 2.71736 12.705 2.76258 12.6585 2.72924L12.2989 2.47225L11.9394 2.72924C11.8929 2.76258 11.8308 2.71736 11.848 2.66285L11.9814 2.24151L11.6258 1.97901C11.5798 1.94496 11.6035 1.87198 11.6608 1.87155L12.1027 1.86819L12.2425 1.44893C12.2605 1.39463 12.3373 1.39463 12.3554 1.44893Z" fill="#F5F5F5"/>
<path d="M12.3554 3.64224L12.4952 4.06149L12.9371 4.06486C12.9944 4.06536 13.018 4.13826 12.972 4.17232L12.6165 4.43489L12.7499 4.85622C12.7672 4.91074 12.705 4.95596 12.6585 4.92262L12.2989 4.66563L11.9394 4.92262C11.8929 4.95589 11.8308 4.91074 11.848 4.85622L11.9814 4.43489L11.6258 4.17232C11.5798 4.13826 11.6035 4.06536 11.6608 4.06486L12.1027 4.06149L12.2425 3.64224C12.2605 3.588 12.3373 3.588 12.3554 3.64224Z" fill="#F5F5F5"/>
<path d="M12.3554 5.83565L12.4952 6.25491L12.9371 6.25827C12.9944 6.25877 13.018 6.33168 12.972 6.36573L12.6165 6.6283L12.7499 7.04964C12.7672 7.10415 12.705 7.14937 12.6585 7.11603L12.2989 6.85904L11.9394 7.11603C11.8929 7.1493 11.8308 7.10423 11.848 7.04964L11.9814 6.6283L11.6258 6.36573C11.5798 6.33168 11.6035 6.25877 11.6608 6.25827L12.1027 6.25491L12.2425 5.83565C12.2605 5.78135 12.3373 5.78135 12.3554 5.83565Z" fill="#F5F5F5"/>
<path d="M12.3554 8.02803L12.4952 8.44729L12.9371 8.45065C12.9944 8.45115 13.018 8.52413 12.972 8.55811L12.6165 8.82069L12.7499 9.24202C12.7672 9.29654 12.705 9.34175 12.6585 9.30841L12.2989 9.05142L11.9394 9.30841C11.8929 9.34168 11.8308 9.29654 11.848 9.24202L11.9814 8.82069L11.6258 8.55811C11.5798 8.5242 11.6035 8.45115 11.6608 8.45065L12.1027 8.44729L12.2425 8.02803C12.2605 7.97373 12.3373 7.97373 12.3554 8.02803Z" fill="#F5F5F5"/>
<path d="M12.3554 10.2213L12.4952 10.6406L12.9371 10.644C12.9944 10.6445 13.018 10.7174 12.972 10.7514L12.6165 11.014L12.7499 11.4353C12.7672 11.4898 12.705 11.5351 12.6585 11.5017L12.2989 11.2447L11.9394 11.5017C11.8929 11.535 11.8308 11.4898 11.848 11.4353L11.9814 11.014L11.6258 10.7514C11.5798 10.7174 11.6035 10.6445 11.6608 10.644L12.1027 10.6406L12.2425 10.2213C12.2605 10.1671 12.3373 10.1671 12.3554 10.2213Z" fill="#F5F5F5"/>
<path d="M14.0575 2.52407L14.1973 2.94333L14.6393 2.94669C14.6965 2.94719 14.7202 3.02017 14.6742 3.05415L14.3187 3.31673L14.452 3.73806C14.4694 3.79258 14.4072 3.83779 14.3606 3.80445L14.0011 3.54746L13.6416 3.80445C13.595 3.83772 13.533 3.79258 13.5501 3.73806L13.6835 3.31673L13.328 3.05415C13.282 3.0201 13.3057 2.94719 13.3629 2.94669L13.8048 2.94333L13.9446 2.52407C13.9627 2.46984 14.0394 2.46984 14.0575 2.52407Z" fill="#F5F5F5"/>
<path d="M14.0575 4.71749L14.1973 5.13674L14.6393 5.14011C14.6965 5.14061 14.7202 5.21358 14.6742 5.24757L14.3187 5.51014L14.452 5.93147C14.4694 5.98599 14.4072 6.03121 14.3606 5.99787L14.0011 5.74087L13.6416 5.99787C13.595 6.03114 13.533 5.98606 13.5501 5.93147L13.6835 5.51014L13.328 5.24757C13.282 5.21366 13.3057 5.14061 13.3629 5.14011L13.8048 5.13674L13.9446 4.71749C13.9627 4.66318 14.0394 4.66318 14.0575 4.71749Z" fill="#F5F5F5"/>
<path d="M14.0575 6.91084L14.1973 7.3301L14.6393 7.33346C14.6965 7.33397 14.7202 7.40687 14.6742 7.44093L14.3187 7.7035L14.452 8.12483C14.4694 8.17935 14.4072 8.22457 14.3606 8.19123L14.0011 7.93423L13.6416 8.19123C13.595 8.22449 13.533 8.17935 13.5501 8.12483L13.6835 7.7035L13.328 7.44093C13.282 7.40687 13.3057 7.33397 13.3629 7.33346L13.8048 7.3301L13.9446 6.91084C13.9627 6.85654 14.0394 6.85654 14.0575 6.91084Z" fill="#F5F5F5"/>
<path d="M14.0575 9.10415L14.1973 9.52341L14.6393 9.52677C14.6965 9.52727 14.7202 9.60018 14.6742 9.63423L14.3187 9.8968L14.452 10.3181C14.4694 10.3727 14.4072 10.4179 14.3606 10.3845L14.0011 10.1275L13.6416 10.3845C13.595 10.4179 13.533 10.3727 13.5501 10.3181L13.6835 9.8968L13.328 9.63423C13.282 9.60018 13.3057 9.52727 13.3629 9.52677L13.8048 9.52341L13.9446 9.10415C13.9627 9.04992 14.0394 9.04992 14.0575 9.10415Z" fill="#F5F5F5"/>
<path d="M15.7602 1.44893L15.9 1.86819L16.3419 1.87155C16.3992 1.87205 16.4228 1.94503 16.3768 1.97901L16.0213 2.24151L16.1547 2.66285C16.172 2.71736 16.1098 2.76258 16.0632 2.72924L15.7037 2.47225L15.3442 2.72924C15.2976 2.76258 15.2356 2.71736 15.2528 2.66285L15.3861 2.24151L15.0306 1.97901C14.9846 1.94496 15.0083 1.87198 15.0655 1.87155L15.5075 1.86819L15.6473 1.44893C15.6653 1.39463 15.742 1.39463 15.7602 1.44893Z" fill="#F5F5F5"/>
<path d="M15.7597 3.64224L15.8995 4.06149L16.3414 4.06486C16.3987 4.06536 16.4223 4.13826 16.3763 4.17232L16.0208 4.43489L16.1542 4.85622C16.1715 4.91074 16.1093 4.95596 16.0628 4.92262L15.7032 4.66563L15.3437 4.92262C15.2971 4.95589 15.2351 4.91074 15.2523 4.85622L15.3857 4.43489L15.0301 4.17232C14.9841 4.13826 15.0078 4.06536 15.0651 4.06486L15.507 4.06149L15.6468 3.64224C15.6648 3.588 15.7415 3.588 15.7597 3.64224Z" fill="#F5F5F5"/>
<path d="M15.7597 5.83565L15.8995 6.25491L16.3414 6.25827C16.3987 6.25877 16.4223 6.33168 16.3763 6.36573L16.0208 6.6283L16.1542 7.04964C16.1715 7.10415 16.1093 7.14937 16.0628 7.11603L15.7032 6.85904L15.3437 7.11603C15.2971 7.1493 15.2351 7.10423 15.2523 7.04964L15.3857 6.6283L15.0301 6.36573C14.9841 6.33168 15.0078 6.25877 15.0651 6.25827L15.507 6.25491L15.6468 5.83565C15.6648 5.78135 15.7415 5.78135 15.7597 5.83565Z" fill="#F5F5F5"/>
<path d="M15.7597 8.02803L15.8995 8.44729L16.3414 8.45065C16.3987 8.45115 16.4223 8.52413 16.3763 8.55811L16.0208 8.82069L16.1542 9.24202C16.1715 9.29654 16.1093 9.34175 16.0628 9.30841L15.7032 9.05142L15.3437 9.30841C15.2971 9.34168 15.2351 9.29654 15.2523 9.24202L15.3857 8.82069L15.0301 8.55811C14.9841 8.5242 15.0078 8.45115 15.0651 8.45065L15.507 8.44729L15.6468 8.02803C15.6648 7.97373 15.7415 7.97373 15.7597 8.02803Z" fill="#F5F5F5"/>
<path d="M15.7597 10.2213L15.8995 10.6406L16.3414 10.644C16.3987 10.6445 16.4223 10.7174 16.3763 10.7514L16.0208 11.014L16.1542 11.4353C16.1715 11.4898 16.1093 11.5351 16.0628 11.5017L15.7032 11.2447L15.3437 11.5017C15.2971 11.535 15.2351 11.4898 15.2523 11.4353L15.3857 11.014L15.0301 10.7514C14.9841 10.7174 15.0078 10.6445 15.0651 10.644L15.507 10.6406L15.6468 10.2213C15.6648 10.1671 15.7415 10.1671 15.7597 10.2213Z" fill="#F5F5F5"/>
</svg>
