<svg width="301" height="154" viewBox="0 0 301 154" fill="none" xmlns="http://www.w3.org/2000/svg">
<path d="M63.0814 0.518326C61.1514 1.39247 59.0376 4.70502 57.8888 8.66169C57.0617 11.3301 56.1886 16.483 55.3614 23.4302L55.0857 25.6385H40.5188L40.1972 23.3381C39.5079 18.2773 36.5669 15.1028 33.1665 15.7469C30.7769 16.2069 27.9279 19.2895 26.5953 22.8321L25.5843 25.6385H13.7286C3.57317 25.6385 1.78103 25.7305 1.18365 26.3746C0.264599 27.2948 0.264599 28.1229 1.2296 28.9051C1.78103 29.4112 4.53817 29.5952 13.2691 29.6872L24.6193 29.8252L24.022 33.5979C23.1029 39.5789 22.7353 55.9116 23.4246 62.0306C24.8491 75.2348 29.4443 85.0345 35.6019 87.979C38.451 89.3132 42.0812 89.4512 44.6545 88.209C46.6305 87.2888 50.8581 83.2862 53.1557 80.1576L54.1667 78.7774V82.366C54.2126 86.5067 54.9938 88.485 56.8319 88.9451C59.681 89.6812 60.9217 88.347 65.7007 79.3755C70.7095 69.9899 74.7533 64.7451 76.959 64.7451C77.5105 64.7451 78.0159 64.9291 78.4295 65.2972C78.6133 65.6192 78.7971 69.7139 78.7971 74.4067C78.7971 82.6421 78.8431 83.0101 79.9459 84.9885C81.5543 87.8409 83.6221 89.1291 86.609 89.1291C90.8366 89.1291 94.5128 86.9208 98.4188 81.9519L100.808 78.9154L101.544 81.7219C103.06 87.2428 106.185 90.1413 111.01 90.4174C114.778 90.6474 117.259 89.4972 121.073 85.6786C124.658 82.09 127.966 77.0291 131.458 69.8059C134.078 64.469 135.64 61.9846 136.513 61.9846C137.386 61.9846 137.386 66.6774 136.559 75.7409C135.594 86.0466 135.686 87.7489 137.386 88.6691C138.949 89.4972 140.879 89.1751 142.119 87.9329C142.763 87.2888 144.417 84.6204 145.704 82.09C152.183 69.4378 157.973 62.5367 159.765 65.2972C159.949 65.6192 160.133 69.7139 160.133 74.4067C160.133 82.6421 160.179 83.0101 161.282 84.9885C162.936 87.9329 164.958 89.1291 168.174 89.1291C171.805 89.1291 174.837 87.5189 178.284 83.7462C179.8 82.044 181.133 80.8017 181.179 80.8938C181.225 80.9858 181.914 82.274 182.603 83.7462C184.258 87.1508 186.693 88.7151 190.369 88.7151C193.172 88.7151 196.389 87.4269 198.043 85.6326C198.641 85.0345 199.284 84.5284 199.514 84.5284C199.744 84.5284 199.882 88.025 199.882 92.2577V100.033L197.768 102.747C194.459 106.98 192.621 110.063 189.726 116.044C184.993 125.889 182.833 133.987 182.741 142.084C182.695 146.685 182.741 147.145 184.028 149.629C185.682 152.85 187.52 154 191.059 154C195.838 154 198.871 151.009 201.306 143.924C203.19 138.449 203.65 133.757 203.879 117.47L204.109 101.873L208.521 96.0763C215 87.5649 219.733 80.1576 223.363 72.8424C225.155 69.2998 226.672 66.2633 226.81 66.1713C227.131 65.8032 231.497 75.3728 231.818 77.1211C232.048 78.4554 231.864 79.5135 231.221 81.0318C229.659 84.5284 226.488 85.4025 223.317 83.1481C221.755 82.044 219.963 81.9519 219.136 82.9641C218.308 83.9763 219.641 86.3687 221.801 88.025C224.604 90.1873 228.096 91.0615 233.013 90.8774C237.057 90.7394 237.746 90.5554 241.009 88.9451C244.961 87.0128 248.729 83.5162 251.578 79.1915L253.324 76.615L254.886 79.6055C258.103 85.6786 261.641 88.577 266.512 88.9911C270.143 89.3592 273.313 87.8409 276.714 84.1143C279.241 81.3538 282.871 75.6489 284.204 72.1983C284.985 70.312 284.985 70.174 284.204 69.3458C283.79 68.8398 283.239 68.5177 282.596 68.4257C281.769 68.4257 280.298 69.8059 280.298 70.588C280.298 71.6462 275.473 78.9614 273.267 81.2158C269.224 85.3565 267.202 85.9086 263.709 83.6542C261.32 82.136 259.022 78.8234 257.506 74.6367L256.449 71.6922L258.241 68.2877C262.239 60.9264 266.696 44.3177 267.34 34.61L267.661 30.0093L283.515 29.7792C292.246 29.6412 299.644 29.3652 299.966 29.1811C300.655 28.721 300.701 26.9267 299.966 26.1906C299.552 25.7766 295.279 25.6385 283.469 25.6385H267.523L267.248 24.5804C267.11 23.9362 267.018 23.2921 266.972 22.648C266.972 22.1419 266.466 20.6237 265.823 19.2895C264.95 17.4032 264.353 16.713 263.02 16.1609C260.768 15.1948 258.746 15.6549 256.862 17.4952C255.438 18.8754 252.727 23.8442 252.727 25.0404C252.727 25.5005 250.015 25.6385 240.641 25.6385C228.188 25.6385 227.453 25.7305 227.453 27.5248C227.453 29.3191 228.51 29.5492 240.228 29.6872L251.44 29.8252L251.118 31.8956C249.418 43.3975 249.648 64.193 251.578 70.266C251.946 71.4622 247.58 78.5474 244.639 81.5379C241.468 84.7584 237.93 86.7367 234.438 87.1508C231.91 87.4268 231.221 86.8288 233.013 85.9086C234.392 85.1265 236.184 80.9858 236.184 78.5014C236.184 75.7869 235.495 73.9006 231.772 66.2173C229.199 61.0644 228.694 59.6842 228.831 58.12C229.245 52.8291 228.51 50.9428 226.028 50.9428C223.823 50.9428 223.133 52.599 223.501 56.9238C223.869 61.5245 222.858 64.8831 218.722 72.5664C214.724 80.0196 206.085 92.9938 204.431 94.006C204.063 94.236 204.017 91.2915 204.247 83.0561C204.569 72.8424 204.523 71.7382 203.833 71.0481C202.087 69.2998 200.938 70.266 199.79 74.4527C198.181 80.4797 195.24 83.9763 191.334 84.4364C187.291 84.8964 185.407 82.274 185.728 76.7071C185.958 72.5664 187.245 69.5759 189.818 66.9994C192.253 64.561 194.137 63.7329 197.584 63.4568C200.249 63.3188 200.755 63.4108 202.317 64.469C204.201 65.7572 205.809 65.9873 206.682 65.1131C207.647 64.147 207.28 62.9968 205.58 61.6165C201.26 58.0279 193.586 58.488 188.302 62.6747C186.004 64.515 183.063 68.3797 180.995 72.3363C175.251 83.2402 167.899 88.163 165.096 83.0101C164.36 81.7219 164.268 80.4797 164.406 73.6245C164.544 65.1131 164.268 63.5489 162.155 61.5705C161.373 60.8344 160.546 60.6044 158.754 60.6044C156.273 60.6044 154.113 61.7546 151.769 64.331C150.069 66.2173 145.06 74.0846 142.901 78.2253C140.741 82.366 139.868 83.2402 140.281 80.7097C140.419 79.9276 140.787 75.6949 141.108 71.4162C141.522 65.2972 141.522 63.1348 141.108 61.5705C139.73 56.6017 135.732 55.9576 132.01 60.1443C131.413 60.7884 129.528 64.193 127.736 67.7816C125.944 71.3702 123.693 75.5109 122.728 77.0291C116.524 86.6907 109.999 89.0831 106.598 83.0101C105.22 80.5717 104.944 75.4188 105.679 65.8492C106.277 57.8899 106.139 56.9238 104.347 56.9238C102.417 56.9238 102.003 57.8899 101.452 63.5949C100.992 68.7937 100.854 69.3458 98.8323 73.2565C96.1671 78.5014 90.7907 84.2523 88.1254 84.7584C85.8278 85.1725 84.679 84.7124 83.714 83.0101C83.0707 81.7679 82.9328 80.2497 82.9328 73.2565C82.9328 66.2633 82.795 64.7451 82.1516 63.5029C81.0028 61.4325 79.5783 60.6044 77.1888 60.6044C74.11 60.6044 71.5367 62.4447 68.4119 66.8614C65.9764 70.266 60.9217 78.6854 59.681 81.4459C59.4052 82.09 58.9457 82.55 58.7619 82.412C58.5781 82.274 58.3483 79.4675 58.3483 76.155V70.128L61.2893 64.331C67.1712 52.7371 70.5257 43.5815 72.8693 32.8157C73.9721 27.9849 74.8406 22.2938 74.8452 18.7374C74.8498 14.8543 73.7424 6.72936 71.5826 3.55483C69.4229 0.380302 66.0224 -0.76989 63.0814 0.518326V0.518326ZM67.2171 4.98107C69.5148 6.72936 70.8014 14.5507 70.1121 22.0959L69.7445 25.6385H59.2214L59.4971 22.9701C60.4621 14.0446 61.4731 9.16777 62.9895 6.26929C63.7248 4.79704 64.2762 4.33696 65.7467 4.06092C66.2981 4.29096 66.8036 4.567 67.2171 4.98107V4.98107ZM35.6019 22.556C35.8777 23.4302 36.1074 24.3503 36.2912 25.2705C36.2912 25.4545 34.9586 25.6385 33.3043 25.6385C31.65 25.6385 30.3174 25.4545 30.3174 25.1784C30.3174 23.4302 33.2124 19.5655 34.2693 19.9796C34.6369 20.1176 35.2343 21.2678 35.6019 22.556ZM262.193 21.7739C262.56 22.648 262.79 23.5682 262.836 24.4883C262.836 25.5925 262.744 25.6385 260.079 25.6385C257.781 25.6385 257.322 25.5005 257.322 24.8104C257.322 23.8902 258.976 21.0378 259.941 20.2556C260.906 19.4735 261.412 19.8876 262.193 21.7739ZM36.2912 32.5397C36.2912 36.4043 35.0505 44.2716 33.5341 50.2526C32.1096 55.7276 29.2146 64.193 28.5253 64.8831C26.7331 66.6774 26.9629 38.2446 28.801 30.7914C29.0308 29.8712 29.3065 29.7792 32.661 29.7792H36.2912V32.5397V32.5397ZM54.7641 30.6074C54.7181 30.9294 54.5343 39.7169 54.3964 50.1606L54.1207 69.1158L52.0069 73.1645C50.6743 75.6489 49.1119 77.9953 47.4117 80.2036C43.0462 85.5405 39.5079 86.2307 35.556 82.596C33.3962 80.6177 29.8579 74.2227 29.8579 72.3363C29.8579 71.7842 30.685 69.6679 31.65 67.6896C36.1993 58.534 39.5998 45.4218 40.7026 32.8617L40.9784 29.7332L47.9172 29.8712C53.2936 29.9633 54.856 30.1473 54.7641 30.6074V30.6074ZM68.9174 30.5614C68.9174 31.9416 66.7576 40.407 65.2412 44.8697C62.9895 51.5869 59.2214 60.1903 58.716 59.8682C58.2105 59.5462 58.6241 30.9294 59.1295 30.1013C59.2214 29.9172 61.4731 29.7792 64.1383 29.7792C68.3659 29.7792 68.9174 29.8712 68.9174 30.5614ZM263.296 31.9416C263.25 39.1188 260.355 52.323 256.77 61.7086C254.749 66.9074 254.427 65.8032 254.197 53.7032C254.013 44.4557 254.795 33.0458 255.76 30.5614C255.989 29.9172 256.679 29.7792 259.665 29.7792H263.296V31.9416V31.9416ZM199.744 119.908C199.33 136.609 197.814 144.43 194.321 148.111C192.851 149.675 192.391 149.905 190.875 149.767C189.818 149.767 188.807 149.215 188.21 148.341C187.337 147.191 187.245 146.409 187.291 141.67C187.337 135.873 188.026 132.376 190.737 124.693C193.172 117.838 198.641 107.716 199.606 108.314C199.836 108.498 199.927 113.191 199.744 119.908Z" fill="#2E3440"/>
<path d="M105.45 40.4072C102.509 40.4072 100.165 42.7536 100.165 45.6981C100.165 48.6426 102.509 50.989 105.45 50.989C108.391 50.989 110.734 48.6426 110.734 45.6981C110.734 42.7536 108.391 40.4072 105.45 40.4072ZM105.45 48.4126C103.933 48.4126 102.738 47.2164 102.738 45.6981C102.738 44.1799 103.933 42.9837 105.45 42.9837C106.966 42.9837 108.161 44.1799 108.161 45.6981C108.161 47.1704 106.966 48.4126 105.45 48.4126Z" fill="#2E3440"/>
</svg>
